<svg version="1.1" id="Layer_1" xmlns="http://www.w3.org/2000/svg" xmlns:xlink="http://www.w3.org/1999/xlink" x="0px" y="0px"
	 width="100%" viewBox="0 0 1024 1024" enable-background="new 0 0 1024 1024" xml:space="preserve">
<path fill="#000000" opacity="1.000000" stroke="none" 
	d="
M306.001251,291.690063 
	C387.831146,291.691284 469.161774,291.829681 550.491211,291.575623 
	C566.165710,291.526672 581.737671,289.491455 595.824219,281.548462 
	C597.272522,280.731842 598.629700,279.755066 600.046265,278.880219 
	C601.412598,278.036469 602.416443,276.471527 604.829468,276.704712 
	C604.829468,298.479767 604.829468,320.263123 604.829468,341.887787 
	C603.726807,342.430176 603.138306,341.987305 602.814819,341.434998 
	C593.213257,325.041870 577.705017,318.270081 559.962891,315.383514 
	C551.106750,313.942657 542.160278,313.208405 533.149414,313.241364 
	C507.650726,313.334625 482.150574,313.401428 456.653259,313.195709 
	C451.772095,313.156311 449.974854,314.280304 450.056305,319.543396 
	C450.373596,340.037842 450.213135,360.539703 450.225800,381.038818 
	C450.230591,388.768524 450.224792,388.848419 458.223572,388.864990 
	C501.887787,388.955475 545.554504,388.750153 589.215515,389.156342 
	C617.630554,389.420685 646.096497,389.578766 673.974792,396.640411 
	C715.740479,407.219727 750.487854,428.152649 774.545837,464.676849 
	C790.144104,488.357880 798.315308,514.576172 800.457642,542.900391 
	C802.951721,575.875061 798.923157,607.877930 785.348206,637.995667 
	C761.192932,691.587402 719.846985,724.105103 661.966492,735.357178 
	C642.287903,739.182617 622.423889,740.357178 602.421753,740.325195 
	C549.923889,740.241150 497.425873,740.302124 444.927887,740.289062 
	C439.057312,740.287598 438.468872,739.474426 438.705688,734.149292 
	C438.895844,729.873596 441.880859,729.938293 444.671997,729.927429 
	C454.649384,729.888611 464.140778,727.968628 473.107819,723.460938 
	C480.911560,719.538086 484.671875,713.225281 484.707336,704.616943 
	C484.754669,693.117615 484.745178,681.617859 484.711060,670.118408 
	C484.691864,663.653320 484.370636,663.324280 477.919983,663.321167 
	C441.254730,663.303467 404.589478,663.319458 367.924225,663.305786 
	C362.311615,663.303711 361.220123,662.078979 361.786224,657.058167 
	C362.282959,652.652832 365.823578,653.079773 368.592926,652.944214 
	C375.474243,652.607544 382.084015,651.468628 388.484222,648.766968 
	C402.884247,642.688660 406.570984,630.452576 406.636932,616.602478 
	C406.846375,572.605164 406.722382,528.606262 406.723236,484.608002 
	C406.724274,430.110107 406.724854,375.612213 406.716064,321.114319 
	C406.714813,313.309113 406.690033,313.282379 399.094360,313.282074 
	C366.262299,313.280792 333.425354,312.964844 300.600250,313.447876 
	C284.529572,313.684387 268.691742,316.202484 255.244095,326.309265 
	C241.260727,336.818665 234.687698,351.328339 233.379013,368.346466 
	C232.411346,380.930359 234.009659,393.271698 238.861191,405.058685 
	C239.172287,405.814453 239.518677,406.611420 238.586029,407.961334 
	C234.050644,404.941925 230.052216,401.430878 226.850769,396.972595 
	C217.935059,384.556671 215.380981,370.475922 216.814438,355.674805 
	C218.758774,335.598816 227.688950,319.135620 244.174011,307.206848 
	C256.050232,298.613098 269.580475,294.279205 284.072754,292.696136 
	C291.198944,291.917664 298.332886,291.478363 306.001251,291.690063 
M629.602722,717.822998 
	C635.949646,717.527283 642.093384,715.973572 648.251282,714.629883 
	C689.301575,705.672485 719.516174,682.784668 735.564819,643.615417 
	C752.353943,602.638794 755.847473,559.958130 745.376099,516.901794 
	C734.062744,470.383362 707.053711,436.601074 661.024780,419.793976 
	C639.797180,412.042877 617.603882,410.022034 595.301086,409.428711 
	C574.822632,408.883911 554.317139,409.429474 533.827148,409.189026 
	C528.885864,409.131073 527.196045,410.507324 527.202881,415.646362 
	C527.335449,515.111267 527.323059,614.576355 527.229919,714.041382 
	C527.225891,718.342896 528.483765,719.876343 532.915833,719.848267 
	C553.573303,719.717651 574.232727,719.934814 594.891357,719.916382 
	C606.196289,719.906250 617.507202,719.780029 629.602722,717.822998 
M484.731567,475.500031 
	C484.729370,460.172333 484.817169,444.843933 484.698181,429.517151 
	C484.591705,415.800415 480.170929,410.762604 466.775299,408.025696 
	C463.285492,407.312653 459.813873,407.582336 456.355133,407.236603 
	C451.632294,406.764526 450.018311,408.403168 450.070007,413.344604 
	C450.333252,438.499268 450.249023,463.657654 450.261475,488.814758 
	C450.283905,534.131042 450.271698,579.447266 450.311707,624.763550 
	C450.322784,637.297607 455.184784,644.499390 465.852539,648.239319 
	C468.549469,649.184753 471.299713,649.608398 474.130280,649.913391 
	C484.010071,650.978210 484.706390,650.419312 484.708252,640.438660 
	C484.718536,585.792480 484.723969,531.146240 484.731567,475.500031 
z"/>
</svg>